/* XPM */
static char *_825_1b0652023d37e95cc49ac81c1173a4ed42a799adf072a0b201cc669b673ea177_0[] = {
/* columns rows colors chars-per-pixel */
"76 46 256 2 ",
"   c black",
".  c gray3",
"X  c #101010",
"o  c #181818",
"O  c #202020",
"+  c #282828",
"@  c gray19",
"#  c gray20",
"$  c gray22",
"%  c #484848",
"&  c #585858",
"*  c #606060",
"=  c gray40",
"-  c #686868",
";  c gray47",
":  c #808080",
">  c #A0A0A0",
",  c gray66",
"<  c gray72",
"1  c #C0C0C0",
"2  c #D8D8D8",
"3  c white",
"4  c #B87878",
"5  c #663333",
"6  c #A04040",
"7  c #903030",
"8  c #200000",
"9  c #330000",
"0  c #480000",
"q  c #660000",
"w  c #680000",
"e  c #700000",
"r  c #780000",
"t  c #800000",
"y  c #880000",
"u  c #900000",
"i  c #990000",
"p  c #D80000",
"a  c red",
"s  c #D03830",
"d  c #C86860",
"f  c #A06860",
"g  c #FF6850",
"h  c #C86858",
"j  c #E02000",
"k  c #A06858",
"l  c #FF4800",
"z  c #E84800",
"x  c #C0A090",
"c  c #FF6800",
"v  c #F08838",
"b  c #D86800",
"n  c #663300",
"m  c #FFA840",
"M  c #FF9000",
"N  c #FFC878",
"B  c #C8A058",
"V  c #FFB000",
"C  c #C0B8A0",
"Z  c #C0C0A8",
"A  c #666633",
"S  c #333300",
"D  c #666600",
"F  c #669900",
"G  c #669933",
"H  c #336600",
"J  c #66CC00",
"K  c #66FF00",
"L  c #66CC33",
"P  c #339900",
"I  c #33CC00",
"U  c #66FF33",
"Y  c None",
"T  c #30FF00",
"R  c #788078",
"E  c #505850",
"W  c #788878",
"Q  c #586858",
"!  c #669966",
"~  c #C0D8C0",
"^  c #336633",
"/  c #339933",
"(  c #66CC66",
")  c #33CC33",
"_  c #003300",
"`  c #006600",
"'  c #009900",
"]  c #00CC00",
"[  c green",
"{  c #33FF33",
"}  c #66FF66",
"|  c #00FF33",
" . c #00CC33",
".. c #33FF66",
"X. c #33CC66",
"o. c #009933",
"O. c #66FF99",
"+. c #00FF66",
"@. c #339966",
"#. c #66CC99",
"$. c #006633",
"%. c #00CC66",
"&. c #33FF99",
"*. c #00FF99",
"=. c #33CC99",
"-. c #009966",
";. c #66FFCC",
":. c #00CC99",
">. c #33FFCC",
",. c #00FFCC",
"<. c #588080",
"1. c #669999",
"2. c #336666",
"3. c #339999",
"4. c #66CCCC",
"5. c #33CCCC",
"6. c #003333",
"7. c #006666",
"8. c #009999",
"9. c #00CCCC",
"0. c cyan",
"q. c #33FFFF",
"w. c #66FFFF",
"e. c #A8FFFF",
"r. c #B0FFFF",
"t. c #D8FFFF",
"y. c #08B0C0",
"u. c #78F0FF",
"i. c #20E0FF",
"p. c #58E8FF",
"a. c #90F0FF",
"s. c #18C8E8",
"d. c #10B8D8",
"f. c #30D0F0",
"g. c #00D8FF",
"h. c #10D8FF",
"j. c #60E8FF",
"k. c #68E8FF",
"l. c #98F0FF",
"z. c #A0F0FF",
"x. c #08D0FF",
"c. c #20D8FF",
"v. c #28D8FF",
"b. c #30D8FF",
"n. c #48E0FF",
"m. c #50E0FF",
"M. c #58E0FF",
"N. c #78E8FF",
"B. c #80E8FF",
"V. c #A8F0FF",
"C. c #B0F0FF",
"Z. c #20C0E8",
"A. c #18C0E8",
"S. c #10A8D0",
"D. c #20C8F0",
"F. c #00CCFF",
"G. c #18D0FF",
"H. c #20D0FF",
"J. c #38D8FF",
"K. c #48D8FF",
"L. c #88E8FF",
"P. c #10C8FF",
"I. c #28D0FF",
"U. c #30D0FF",
"Y. c #38D0FF",
"T. c #50D8FF",
"R. c #58D8FF",
"E. c #70E0FF",
"W. c #78E0FF",
"Q. c #98E8FF",
"!. c #20B8E8",
"~. c #10A8D8",
"^. c #0099CC",
"/. c #20C8FF",
"(. c #28C8FF",
"). c #33CCFF",
"_. c #60D8FF",
"`. c #68D8FF",
"'. c #80E0FF",
"]. c #A0E8FF",
"[. c #70D8FF",
"{. c #90E0FF",
"}. c #A8E8FF",
"|. c #10A0E0",
" X c #28C0FF",
".X c #78D8FF",
"XX c #80D8FF",
"oX c #98E0FF",
"OX c #B0E8FF",
"+X c #3399CC",
"@X c #006699",
"#X c #20B8FF",
"$X c #38C0FF",
"%X c #66CCFF",
"&X c #88D8FF",
"*X c #A0E0FF",
"=X c #20A8F0",
"-X c #18B0FF",
";X c #20B0FF",
":X c #30B8FF",
">X c #90D8FF",
",X c #A8E0FF",
"<X c #98D8FF",
"1X c #0099FF",
"2X c #20A8FF",
"3X c #B0E0FF",
"4X c #2098FF",
"5X c #336699",
"6X c #6699CC",
"7X c #003366",
"8X c #0066CC",
"9X c #2090FF",
"0X c #3399FF",
"qX c #B0D8FF",
"wX c #1888FF",
"eX c #2088FF",
"rX c #1880FF",
"tX c #0066FF",
"yX c #1068FF",
"uX c #3366CC",
"iX c #003399",
"pX c #6699FF",
"aX c #0048FF",
"sX c #0033CC",
"dX c #3366FF",
"fX c #0033FF",
"gX c #666699",
"hX c #333366",
"jX c #333399",
"kX c #6666CC",
"lX c #3333CC",
"zX c #000033",
"xX c #000066",
"cX c #000099",
"vX c #0000CC",
"bX c blue",
"nX c #3333FF",
"mX c #6666FF",
"MX c #3300FF",
"NX c #3300CC",
"BX c #6633FF",
"VX c #6633CC",
"CX c #330099",
"ZX c #6600FF",
"AX c #663399",
"SX c #330066",
"DX c #6600CC",
"FX c #660099",
"GX c #9900CC",
"HX c #663366",
"JX c #330033",
"KX c #660066",
"LX c #990099",
"PX c #990066",
"IX c #660033",
"UX c #990033",
/* pixels */
"Y Y Y Y Y Y Y Y Y Y Y Y Y Y Y Y Y Y Y Y Y Y Y Y Y Y Y Y Y Y Y Y Y Y Y Y Y Y Y Y Y Y Y Y Y Y Y Y Y Y Y Y Y Y Y Y Y Y Y Y Y Y Y Y Y Y Y Y Y Y Y Y Y Y Y Y ",
"Y Y Y Y Y Y Y Y Y Y Y Y Y Y Y Y Y Y Y Y Y Y Y Y Y Y Y Y Y Y Y Y Y Y Y Y Y Y Y Y Y Y Y Y Y Y Y Y Y Y Y Y Y Y Y Y Y Y Y Y Y Y Y Y Y Y Y Y Y Y Y Y Y Y Y Y ",
"Y Y Y Y Y Y Y Y Y Y Y Y Y Y Y Y Y Y Y Y Y Y Y Y Y Y Y Y Y Y Y Y Y Y Y Y Y Y Y Y Y Y Y Y Y Y Y Y Y Y Y Y Y Y Y Y Y Y Y Y Y Y Y Y Y Y Y Y Y Y Y Y Y Y Y Y ",
"Y Y Y Y Y Y Y Y Y Y Y Y Y Y Y Y Y Y Y Y Y Y Y Y Y Y Y Y Y Y Y Y Y Y Y Y Y Y Y Y Y Y Y Y Y Y Y Y Y Y Y Y Y Y Y Y Y Y Y Y Y Y Y Y Y Y Y Y Y Y Y Y Y Y Y Y ",
"Y Y Y Y Y Y Y Y Y Y Y Y Y Y Y Y Y Y Y Y Y Y Y Y Y Y Y Y Y Y Y Y Y Y Y Y Y Y Y Y Y Y Y Y Y Y Y Y Y Y Y Y Y Y Y Y Y Y Y Y Y Y Y Y Y Y Y Y Y Y Y Y Y Y Y Y ",
"Y Y Y Y Y Y Y Y Y Y Y Y Y Y Y Y Y b b b b b b b b b b b b b b b b b b b b b b b b b b b b b t Y Y Y Y Y Y Y Y Y Y Y Y Y Y Y Y Y Y Y Y Y Y Y Y Y Y Y Y Y ",
"Y Y Y Y Y Y Y Y Y Y Y Y Y Y Y Y b t t t t t t t t t p p p p t t t t t t t t t t t t b b b t r.t.Y Y Y Y Y Y Y Y Y Y Y Y Y Y Y Y Y Y Y Y Y Y Y Y Y Y Y Y ",
"Y Y Y Y Y Y Y Y Y Y Y Y Y Y Y b t c.c.k.u.j.M.n.a.p.t p p t g.g.g.g.h.i.n.N.l.r.r.r.t b t qXOXr.t.Y Y Y Y Y Y Y Y Y Y Y Y Y Y Y Y Y Y Y Y Y Y Y Y Y Y Y ",
"Y Y Y Y Y Y Y Y Y Y Y Y Y Y Y t c.s.c.c..X<XOXV.l.a.t p p t x.c.g.v.E.W.B.L.}.V.r.r.t b b t qXr.r.Y Y Y Y Y Y Y Y Y Y Y Y Y Y Y Y Y Y Y Y Y Y Y Y Y Y Y ",
"Y Y Y Y Y Y Y Y Y Y Y Y Y Y b t y.d.#XH.R.,XOXr.e.l.t p p t P.G.c.K.K.'.{.*X*X}.r.r.r.t b t qX3Xr.r.Y Y Y Y Y Y Y Y Y Y Y Y Y Y Y Y Y Y Y Y Y Y Y Y Y Y ",
"Y Y Y Y Y Y Y Y Y Y Y Y Y Y b t S.4X2X$XR.&XqXl.r.Q.t p p t ;XP.H.Y.T..XXX<X].}.C.r.C.t ~ t qX3XOXr.Y Y Y Y Y Y Y Y Y Y Y Y Y Y Y Y Y Y Y Y Y Y Y Y Y Y ",
"Y Y Y Y Y Y Y Y Y Y Y Y Y b t aXrXwX4X:X_..XXXL.z.&Xt p p t 9X XI.U.K.R.[.>X*XoX,X].,Xt : 1 t qXOXr.r.Y Y Y Y Y Y Y Y Y Y Y Y Y Y Y Y Y Y Y Y Y Y Y Y Y ",
"Y Y Y Y Y Y Y Y Y Y Y Y Y b t aXrXwXeXf.H.T.T.E.B..Xt p p t 9X9X-X(.b.J.[.`.XXoXoXoXqXg.: 1 t qXqXr.r.Y Y Y Y Y Y Y Y Y Y Y Y Y Y Y Y Y Y Y Y Y Y Y Y Y ",
"Y Y Y Y Y Y Y Y Y Y Y Y Y b t aXyX9XeX=X!.Z.f.m.N.T.t p p t 9X9X;X/.K.K.`._..XXX>X`.9XqX: 1 M t qXqXr.r.Y Y Y Y Y Y Y Y Y Y Y Y Y Y Y Y Y Y Y Y Y Y Y Y ",
"Y Y Y Y Y $ $ $ Y Y Y Y b t aXaXaXyXrXwX|.~.A.D.U.c.t p p t 9X9X9Xg.x.c.c.K.K.`.`.`.9XqX: 1 M t qXqXr.r.<.Y Y Y Y Y Y Y Y Y Y Y Y Y Y Y Y Y Y Y Y Y Y Y ",
"Y Y Y Y $ $ $ +   Y Y Y b t t t t t t t t t t t t t t p p t 9XaX9Xc.g.g.g.g.g.g.g.9Xg.qX: 1 p M         6 4 Y Y Y Y Y Y Y Y Y Y Y Y Y Y Y Y Y Y Y Y Y Y ",
"Y Y Y Y - $ $ X   Y Y Y p M M M M M M M M M M M M M M p p t M M M M M M M M M M M M M M M   p M M M M M M M M M M M M M M M M M N Y Y Y Y Y Y Y Y Y Y Y ",
"Y Y Y Y - $ @ .   Y Y Y p p p p p p p p p p p p p p p p p t b p p p p p p p p p p p p p b b t p p p p p p p p p p p p p p 8 8 8 M N Y Y Y Y Y Y Y Y Y Y ",
"Y Y Y Y - $ +     Y Y Y t p p p p p p p p p p p p p p p t b p p p p p p p p p p p p p p p b t p p p p p p p p p p p p p 8 l c V 8 m Y Y Y Y Y Y Y Y Y Y ",
"Y Y Y Y - $ O     Y Y g a t p p p Z ~ ~ ~ ~ ~ ~ ~ C s p t b p 3 3 3 p p p p p p p p p p p b t p p p d ~ ~ ~ ~ ~ ~ d p p p 8 8 8 p z Y Y Y Y Y Y Y Y Y Y ",
"Y Y Y Y - $ O     > > g a t p d ~ R @ @ @ @ @ @ @ Q ~ d t b p ~ ~ ~ p p p p p p p p p p p b t p d ~ R @ @ @ @ @ @ R ~ d p p p p p p v Y Y 2 r.Y Y Y Y Y ",
"Y Y Y Y - $ X     > g a a t d ~ @ @ w w w   w w w @ @ ~ f b p p p p p p p p p p p p p p p b 7 d ~ @ @ w w w   w w @ @ ~ ~ p p p p p j Y < < < r.Y Y Y Y ",
"Y Y Y Y - @       > a t t d ~ @ w e t : 1 > > : w w w @ ~ d p p p p p p p p p p p p p p p b k : @ e w w : 1 > > : w w @ W h p p p p p Y ~ ~ ~ r.Y Y Y Y ",
"Y Y Y Y * +       > t p d ~ @ w w r u : 1 > > : t e w w @ ~ d p p p p p p p p p p p p p p b ~ @ r w w t : 1 > > : w r e @ ~ p p p p p : - - - r.Y Y Y Y ",
"Y Y Y Y & X       > p p x @ w e t t u u : > : u u u t w w @ ~ p p p p p p p p p p p p p p B @ w w w r u u : > : u t r e w @ x p p p p : ; ; ; r.Y Y Y Y ",
"Y Y Y Y % X       > p d ~ @ w r t u u u     : u u u u r w @ ~ d p p p p p p p p p p p p p ~ @ w w r u u u     : u u t r w @ ~ p p p p : Y , r.Y Y Y Y Y ",
"Y Y Y Y + X       Y p ~ E w w t u u u u : >   u u u u y w w @ ~ p p p p p p p p p p p p h @ w e r y u u u : >   u u u t r w @ x p p p ~ 1 Y Y Y Y Y Y Y ",
"Y Y Y Y o         Y p ~ E w w t u u u u   > : u u u u y e w @ ~ p p p p p p p p p p p p ~ @ w e y u u u u   > : u u u u e w @ ~ p p p ~ 1 > Y Y Y Y Y Y ",
"Y Y Y Y Y       Y Y p @ @ w r t u u u u :     u u u u y t w @ @ p p p p p p p p p p p p @ @ w e u u u u u :     u u u u t e @ @ p p p p : : Y Y Y Y Y Y ",
"Y Y Y Y Y Y Y Y Y ~ ~ ~ @ w e u u u u           u u u u y w @ & ~ ~ ~ ~ ~ ~ ~ ~ ~ ~ ~ ~ : @ w y u u u u           u u u u t t : 1 1 1 1 1 > Y Y Y Y Y Y ",
"Y Y Y Y Y Y Y Y > > > > > w t u u                   u u y e w w : : : : : : : : : : : : w w r r u u                   u u u y : 1 > > > > > Y Y Y Y Y Y ",
"Y Y Y Y Y Y Y Y > : : : > w @ @                       u u u u u u u u u u u u u u u u u u u u u u                       u 0 0 0 : : : : : Y Y Y Y Y Y Y ",
"Y Y Y Y Y Y Y Y Y > : : 0 : :                           Y 0 0 0 0 0 0 0 0 0 0 0 0 0 0 0 0 0 0 0                           Y Y Y Y Y Y Y Y Y Y Y Y Y Y Y ",
"Y Y Y Y Y Y Y Y Y Y Y Y : : Y           : : :           Y Y 0 0 0 0 0 0 0 0 0 0 0 0 0 0 0 0 0 0           : : :           Y Y Y Y Y Y Y Y Y Y Y Y Y Y Y ",
"Y Y Y Y Y ~ ~ Y Y : : : : Y           : 1 1 1 :           Y Y Y Y Y Y Y Y Y Y Y Y Y Y Y Y Y Y           : 1 1 1 :           Y Y Y Y Y Y Y Y Y Y Y Y Y Y ",
"Y Y Y Y Y ~ : Y Y @ @ @ Y Y         : 1   1   1 :         Y Y Y Y Y Y Y Y Y Y Y Y Y Y Y Y Y Y         : 1   1   1 :         Y Y Y Y Y Y Y Y Y Y Y Y Y Y ",
"Y Y Y Y Y Y Y Y Y Y Y Y Y Y         : 1 1 1 1 1 :         Y Y Y Y Y Y Y Y Y Y Y Y Y Y Y Y Y Y         : 1 1 1 1 1 :         Y Y Y Y Y Y Y Y Y Y Y Y Y Y ",
"Y Y Y Y Y Y Y Y Y Y Y Y Y Y         : 1   1   1 :         Y Y Y Y Y Y Y Y Y Y Y Y Y Y Y Y Y Y         : 1   1   1 :         Y Y Y Y Y Y Y Y Y Y Y Y Y Y ",
"Y Y Y Y Y Y Y Y Y Y Y Y Y Y           : 1 1 1 :           Y Y Y Y Y Y Y Y Y Y Y Y Y Y Y Y Y Y           : 1 1 1 :           Y Y Y Y Y Y Y Y Y Y Y Y Y Y ",
"Y Y Y Y Y Y Y Y Y Y Y Y Y Y Y           : : :           Y Y Y Y Y Y Y Y Y Y Y Y Y Y Y Y Y Y Y Y           : : :           Y Y Y Y Y Y Y Y Y Y Y Y Y Y Y ",
"Y Y Y Y Y Y Y Y Y Y Y Y Y Y Y                           Y Y Y Y Y Y Y Y Y Y Y Y Y Y Y Y Y Y Y Y                           Y Y Y Y Y Y Y Y Y Y Y Y Y Y Y ",
"Y Y Y Y Y Y Y Y Y Y Y Y Y Y Y Y                       Y Y Y Y Y Y Y Y Y Y Y Y Y Y Y Y Y Y Y Y Y Y                       Y Y Y Y Y Y Y Y Y Y Y Y Y Y Y Y ",
"Y Y Y Y Y Y Y Y Y Y Y Y Y Y Y Y Y                   Y Y Y Y Y Y Y Y Y Y Y Y Y Y Y Y Y Y Y Y Y Y Y Y                   Y Y Y Y Y Y Y Y Y Y Y Y Y Y Y Y Y ",
"Y Y Y Y Y Y Y Y Y Y Y Y Y Y Y Y Y Y Y           Y Y Y Y Y Y Y Y Y Y Y Y Y Y Y Y Y Y Y Y Y Y Y Y Y Y Y Y           Y Y Y Y Y Y Y Y Y Y Y Y Y Y Y Y Y Y Y ",
"Y Y Y Y Y Y Y Y Y Y Y Y Y Y Y Y Y Y Y Y Y Y Y Y Y Y Y Y Y Y Y Y Y Y Y Y Y Y Y Y Y Y Y Y Y Y Y Y Y Y Y Y Y Y Y Y Y Y Y Y Y Y Y Y Y Y Y Y Y Y Y Y Y Y Y Y ",
"Y Y Y Y Y Y Y Y Y Y Y Y Y Y Y Y Y Y Y Y Y Y Y Y Y Y Y Y Y Y Y Y Y Y Y Y Y Y Y Y Y Y Y Y Y Y Y Y Y Y Y Y Y Y Y Y Y Y Y Y Y Y Y Y Y Y Y Y Y Y Y Y Y Y Y Y "
};
